<mxfile host="app.diagrams.net" modified="2022-12-15T13:13:46.035Z" agent="5.0 (Macintosh; Intel Mac OS X 10_15_7) AppleWebKit/537.36 (KHTML, like Gecko) Chrome/108.0.0.0 Safari/537.36" etag="xy3T-XbaTsVMI_dtyNEI" version="20.6.2" type="github" pages="2">
  <diagram id="E1y4U7Eby9Zyl9iY3j9r" name="Задача 1">
    <mxGraphModel dx="2088" dy="861" grid="1" gridSize="10" guides="1" tooltips="1" connect="1" arrows="1" fold="1" page="1" pageScale="1" pageWidth="827" pageHeight="1169" math="0" shadow="0">
      <root>
        <mxCell id="0" />
        <mxCell id="1" parent="0" />
        <mxCell id="eJuqDP0Z_mgSJIxOMX1Z-1" value="" style="edgeStyle=orthogonalEdgeStyle;rounded=0;orthogonalLoop=1;jettySize=auto;html=1;fontColor=#000000;" parent="1" source="eJuqDP0Z_mgSJIxOMX1Z-2" target="eJuqDP0Z_mgSJIxOMX1Z-4" edge="1">
          <mxGeometry relative="1" as="geometry" />
        </mxCell>
        <mxCell id="eJuqDP0Z_mgSJIxOMX1Z-2" value="dz" style="ellipse;whiteSpace=wrap;html=1;fontColor=#000000;" parent="1" vertex="1">
          <mxGeometry x="-760.03" y="40" width="120" height="80" as="geometry" />
        </mxCell>
        <mxCell id="eJuqDP0Z_mgSJIxOMX1Z-3" style="edgeStyle=orthogonalEdgeStyle;rounded=0;orthogonalLoop=1;jettySize=auto;html=1;fontColor=#000000;fillColor=#dae8fc;strokeColor=#6c8ebf;" parent="1" source="eJuqDP0Z_mgSJIxOMX1Z-4" target="eJuqDP0Z_mgSJIxOMX1Z-6" edge="1">
          <mxGeometry relative="1" as="geometry">
            <mxPoint x="-700.03" y="230" as="targetPoint" />
          </mxGeometry>
        </mxCell>
        <mxCell id="eJuqDP0Z_mgSJIxOMX1Z-4" value="N - размер массивa" style="rounded=0;whiteSpace=wrap;html=1;fillColor=#dae8fc;strokeColor=#6c8ebf;" parent="1" vertex="1">
          <mxGeometry x="-760.03" y="150" width="120" height="60" as="geometry" />
        </mxCell>
        <mxCell id="eJuqDP0Z_mgSJIxOMX1Z-5" style="edgeStyle=orthogonalEdgeStyle;rounded=0;orthogonalLoop=1;jettySize=auto;html=1;fontColor=#000000;fillColor=#dae8fc;strokeColor=#6c8ebf;" parent="1" source="eJuqDP0Z_mgSJIxOMX1Z-6" target="eJuqDP0Z_mgSJIxOMX1Z-8" edge="1">
          <mxGeometry relative="1" as="geometry">
            <mxPoint x="-700.03" y="330" as="targetPoint" />
          </mxGeometry>
        </mxCell>
        <mxCell id="eJuqDP0Z_mgSJIxOMX1Z-6" value="N" style="shape=parallelogram;perimeter=parallelogramPerimeter;whiteSpace=wrap;html=1;fixedSize=1;fillColor=#dae8fc;strokeColor=#6c8ebf;" parent="1" vertex="1">
          <mxGeometry x="-760.03" y="250" width="120" height="60" as="geometry" />
        </mxCell>
        <mxCell id="eJuqDP0Z_mgSJIxOMX1Z-7" value="" style="edgeStyle=orthogonalEdgeStyle;rounded=0;orthogonalLoop=1;jettySize=auto;html=1;fontColor=#000000;fillColor=#dae8fc;strokeColor=#6c8ebf;" parent="1" source="eJuqDP0Z_mgSJIxOMX1Z-8" target="eJuqDP0Z_mgSJIxOMX1Z-10" edge="1">
          <mxGeometry relative="1" as="geometry" />
        </mxCell>
        <mxCell id="eJuqDP0Z_mgSJIxOMX1Z-8" value="A[N] - массив" style="rounded=0;whiteSpace=wrap;html=1;fillColor=#dae8fc;strokeColor=#6c8ebf;" parent="1" vertex="1">
          <mxGeometry x="-760.03" y="350" width="120" height="60" as="geometry" />
        </mxCell>
        <mxCell id="eJuqDP0Z_mgSJIxOMX1Z-9" value="" style="edgeStyle=orthogonalEdgeStyle;rounded=0;orthogonalLoop=1;jettySize=auto;html=1;fontColor=#000000;fillColor=#dae8fc;strokeColor=#6c8ebf;" parent="1" source="eJuqDP0Z_mgSJIxOMX1Z-10" target="eJuqDP0Z_mgSJIxOMX1Z-12" edge="1">
          <mxGeometry relative="1" as="geometry" />
        </mxCell>
        <mxCell id="eJuqDP0Z_mgSJIxOMX1Z-10" value="index = 0" style="rounded=0;whiteSpace=wrap;html=1;fillColor=#dae8fc;strokeColor=#6c8ebf;" parent="1" vertex="1">
          <mxGeometry x="-760.03" y="450" width="120" height="60" as="geometry" />
        </mxCell>
        <mxCell id="eJuqDP0Z_mgSJIxOMX1Z-11" value="YES" style="edgeStyle=orthogonalEdgeStyle;rounded=0;orthogonalLoop=1;jettySize=auto;html=1;fontColor=#000000;fillColor=#dae8fc;strokeColor=#6c8ebf;" parent="1" source="eJuqDP0Z_mgSJIxOMX1Z-12" target="eJuqDP0Z_mgSJIxOMX1Z-14" edge="1">
          <mxGeometry relative="1" as="geometry">
            <mxPoint x="-700.03" y="649.9999999999999" as="targetPoint" />
          </mxGeometry>
        </mxCell>
        <mxCell id="eJuqDP0Z_mgSJIxOMX1Z-12" value="index &amp;lt; N" style="rhombus;whiteSpace=wrap;html=1;fillColor=#dae8fc;strokeColor=#6c8ebf;" parent="1" vertex="1">
          <mxGeometry x="-740.03" y="545" width="80" height="80" as="geometry" />
        </mxCell>
        <mxCell id="eJuqDP0Z_mgSJIxOMX1Z-13" style="edgeStyle=orthogonalEdgeStyle;rounded=0;orthogonalLoop=1;jettySize=auto;html=1;fontColor=#000000;fillColor=#dae8fc;strokeColor=#6c8ebf;" parent="1" source="eJuqDP0Z_mgSJIxOMX1Z-14" target="eJuqDP0Z_mgSJIxOMX1Z-15" edge="1">
          <mxGeometry relative="1" as="geometry">
            <mxPoint x="-700.03" y="740" as="targetPoint" />
          </mxGeometry>
        </mxCell>
        <mxCell id="eJuqDP0Z_mgSJIxOMX1Z-14" value="A[index]" style="shape=parallelogram;perimeter=parallelogramPerimeter;whiteSpace=wrap;html=1;fixedSize=1;fillColor=#dae8fc;strokeColor=#6c8ebf;" parent="1" vertex="1">
          <mxGeometry x="-760.03" y="660" width="120" height="60" as="geometry" />
        </mxCell>
        <mxCell id="eJuqDP0Z_mgSJIxOMX1Z-17" style="edgeStyle=orthogonalEdgeStyle;rounded=0;orthogonalLoop=1;jettySize=auto;html=1;exitX=0;exitY=0.5;exitDx=0;exitDy=0;entryX=0;entryY=0.5;entryDx=0;entryDy=0;fillColor=#dae8fc;strokeColor=#6c8ebf;" parent="1" source="eJuqDP0Z_mgSJIxOMX1Z-15" target="eJuqDP0Z_mgSJIxOMX1Z-12" edge="1">
          <mxGeometry relative="1" as="geometry" />
        </mxCell>
        <mxCell id="eJuqDP0Z_mgSJIxOMX1Z-15" value="index = index + 1" style="rounded=0;whiteSpace=wrap;html=1;fillColor=#dae8fc;strokeColor=#6c8ebf;" parent="1" vertex="1">
          <mxGeometry x="-760.03" y="750" width="120" height="60" as="geometry" />
        </mxCell>
        <mxCell id="eJuqDP0Z_mgSJIxOMX1Z-18" value="NO" style="edgeStyle=orthogonalEdgeStyle;rounded=0;orthogonalLoop=1;jettySize=auto;html=1;fontColor=#000000;" parent="1" target="eJuqDP0Z_mgSJIxOMX1Z-19" edge="1">
          <mxGeometry relative="1" as="geometry">
            <mxPoint x="-480" y="585" as="targetPoint" />
            <mxPoint x="-660.03" y="585" as="sourcePoint" />
          </mxGeometry>
        </mxCell>
        <mxCell id="eJuqDP0Z_mgSJIxOMX1Z-35" style="edgeStyle=orthogonalEdgeStyle;rounded=0;orthogonalLoop=1;jettySize=auto;html=1;exitX=0.5;exitY=1;exitDx=0;exitDy=0;entryX=0.5;entryY=0;entryDx=0;entryDy=0;" parent="1" source="eJuqDP0Z_mgSJIxOMX1Z-19" target="eJuqDP0Z_mgSJIxOMX1Z-22" edge="1">
          <mxGeometry relative="1" as="geometry" />
        </mxCell>
        <mxCell id="eJuqDP0Z_mgSJIxOMX1Z-19" value="index = 0&lt;br&gt;max = 0&lt;br&gt;min = 0" style="rounded=0;whiteSpace=wrap;html=1;fontColor=#000000;" parent="1" vertex="1">
          <mxGeometry x="-520" y="555" width="120" height="60" as="geometry" />
        </mxCell>
        <mxCell id="eJuqDP0Z_mgSJIxOMX1Z-20" value="YES" style="edgeStyle=orthogonalEdgeStyle;rounded=0;orthogonalLoop=1;jettySize=auto;html=1;fontColor=#000000;" parent="1" source="eJuqDP0Z_mgSJIxOMX1Z-22" target="eJuqDP0Z_mgSJIxOMX1Z-27" edge="1">
          <mxGeometry relative="1" as="geometry">
            <mxPoint x="-460" y="760" as="targetPoint" />
          </mxGeometry>
        </mxCell>
        <mxCell id="eJuqDP0Z_mgSJIxOMX1Z-21" value="NO" style="edgeStyle=orthogonalEdgeStyle;rounded=0;orthogonalLoop=1;jettySize=auto;html=1;fontColor=#000000;entryX=0;entryY=0.5;entryDx=0;entryDy=0;" parent="1" source="eJuqDP0Z_mgSJIxOMX1Z-22" edge="1">
          <mxGeometry relative="1" as="geometry">
            <mxPoint x="-180" y="690" as="targetPoint" />
          </mxGeometry>
        </mxCell>
        <mxCell id="eJuqDP0Z_mgSJIxOMX1Z-22" value="index &amp;lt; N" style="rhombus;whiteSpace=wrap;html=1;fillColor=#f8cecc;strokeColor=#b85450;" parent="1" vertex="1">
          <mxGeometry x="-500" y="650" width="80" height="80" as="geometry" />
        </mxCell>
        <mxCell id="eJuqDP0Z_mgSJIxOMX1Z-23" style="edgeStyle=orthogonalEdgeStyle;rounded=0;orthogonalLoop=1;jettySize=auto;html=1;entryX=0;entryY=0.5;entryDx=0;entryDy=0;fontColor=#000000;exitX=0;exitY=0.5;exitDx=0;exitDy=0;" parent="1" source="eJuqDP0Z_mgSJIxOMX1Z-24" target="eJuqDP0Z_mgSJIxOMX1Z-22" edge="1">
          <mxGeometry relative="1" as="geometry">
            <Array as="points">
              <mxPoint x="-600" y="990" />
              <mxPoint x="-600" y="690" />
            </Array>
          </mxGeometry>
        </mxCell>
        <mxCell id="eJuqDP0Z_mgSJIxOMX1Z-24" value="index = index + 1" style="rounded=0;whiteSpace=wrap;html=1;fontColor=#000000;" parent="1" vertex="1">
          <mxGeometry x="-520" y="960" width="120" height="60" as="geometry" />
        </mxCell>
        <mxCell id="eJuqDP0Z_mgSJIxOMX1Z-25" value="YES" style="edgeStyle=orthogonalEdgeStyle;rounded=0;orthogonalLoop=1;jettySize=auto;html=1;fontColor=#000000;" parent="1" source="eJuqDP0Z_mgSJIxOMX1Z-27" target="eJuqDP0Z_mgSJIxOMX1Z-29" edge="1">
          <mxGeometry relative="1" as="geometry">
            <mxPoint x="-460" y="870" as="targetPoint" />
          </mxGeometry>
        </mxCell>
        <mxCell id="eJuqDP0Z_mgSJIxOMX1Z-26" value="NO" style="edgeStyle=orthogonalEdgeStyle;rounded=0;orthogonalLoop=1;jettySize=auto;html=1;entryX=1;entryY=0.5;entryDx=0;entryDy=0;fontColor=#000000;exitX=1;exitY=0.5;exitDx=0;exitDy=0;" parent="1" source="eJuqDP0Z_mgSJIxOMX1Z-27" target="eJuqDP0Z_mgSJIxOMX1Z-24" edge="1">
          <mxGeometry relative="1" as="geometry" />
        </mxCell>
        <mxCell id="eJuqDP0Z_mgSJIxOMX1Z-27" value="A[index] &amp;gt; A[max]" style="rhombus;whiteSpace=wrap;html=1;fillColor=#d5e8d4;strokeColor=#82b366;" parent="1" vertex="1">
          <mxGeometry x="-545" y="760" width="170" height="80" as="geometry" />
        </mxCell>
        <mxCell id="eJuqDP0Z_mgSJIxOMX1Z-28" style="edgeStyle=orthogonalEdgeStyle;rounded=0;orthogonalLoop=1;jettySize=auto;html=1;fontColor=#000000;entryX=0.5;entryY=0;entryDx=0;entryDy=0;" parent="1" source="eJuqDP0Z_mgSJIxOMX1Z-29" target="eJuqDP0Z_mgSJIxOMX1Z-24" edge="1">
          <mxGeometry relative="1" as="geometry">
            <mxPoint x="-460" y="940" as="targetPoint" />
          </mxGeometry>
        </mxCell>
        <mxCell id="eJuqDP0Z_mgSJIxOMX1Z-29" value="A[max] = A[index]" style="rounded=0;whiteSpace=wrap;html=1;fontColor=#000000;" parent="1" vertex="1">
          <mxGeometry x="-520" y="870" width="120" height="60" as="geometry" />
        </mxCell>
        <mxCell id="eJuqDP0Z_mgSJIxOMX1Z-52" style="edgeStyle=orthogonalEdgeStyle;rounded=0;orthogonalLoop=1;jettySize=auto;html=1;" parent="1" source="eJuqDP0Z_mgSJIxOMX1Z-36" edge="1">
          <mxGeometry relative="1" as="geometry">
            <mxPoint x="175" y="885" as="targetPoint" />
          </mxGeometry>
        </mxCell>
        <mxCell id="eJuqDP0Z_mgSJIxOMX1Z-36" value="A[max] = максимальное элемент массива&lt;br&gt;A[min] = минимальный элемент массива" style="shape=document;whiteSpace=wrap;html=1;boundedLbl=1;fontColor=#000000;" parent="1" vertex="1">
          <mxGeometry x="80" y="735" width="190" height="110" as="geometry" />
        </mxCell>
        <mxCell id="eJuqDP0Z_mgSJIxOMX1Z-49" style="edgeStyle=orthogonalEdgeStyle;rounded=0;orthogonalLoop=1;jettySize=auto;html=1;exitX=0.5;exitY=1;exitDx=0;exitDy=0;entryX=0.5;entryY=0;entryDx=0;entryDy=0;" parent="1" source="eJuqDP0Z_mgSJIxOMX1Z-39" target="eJuqDP0Z_mgSJIxOMX1Z-48" edge="1">
          <mxGeometry relative="1" as="geometry" />
        </mxCell>
        <mxCell id="eJuqDP0Z_mgSJIxOMX1Z-39" value="index = 0" style="rounded=0;whiteSpace=wrap;html=1;fontColor=#000000;" parent="1" vertex="1">
          <mxGeometry x="-180" y="660" width="120" height="60" as="geometry" />
        </mxCell>
        <mxCell id="eJuqDP0Z_mgSJIxOMX1Z-40" value="Да" style="edgeStyle=orthogonalEdgeStyle;rounded=0;orthogonalLoop=1;jettySize=auto;html=1;fontColor=#000000;" parent="1" target="eJuqDP0Z_mgSJIxOMX1Z-45" edge="1">
          <mxGeometry relative="1" as="geometry">
            <mxPoint x="-120" y="860" as="targetPoint" />
            <mxPoint x="-120" y="830" as="sourcePoint" />
          </mxGeometry>
        </mxCell>
        <mxCell id="eJuqDP0Z_mgSJIxOMX1Z-41" style="edgeStyle=orthogonalEdgeStyle;rounded=0;orthogonalLoop=1;jettySize=auto;html=1;entryX=0;entryY=0.5;entryDx=0;entryDy=0;fontColor=#000000;exitX=0;exitY=0.5;exitDx=0;exitDy=0;" parent="1" source="eJuqDP0Z_mgSJIxOMX1Z-42" edge="1">
          <mxGeometry relative="1" as="geometry">
            <Array as="points">
              <mxPoint x="-260" y="1090" />
              <mxPoint x="-260" y="790" />
            </Array>
            <mxPoint x="-160" y="790" as="targetPoint" />
          </mxGeometry>
        </mxCell>
        <mxCell id="eJuqDP0Z_mgSJIxOMX1Z-42" value="index = index + 1" style="rounded=0;whiteSpace=wrap;html=1;fontColor=#000000;" parent="1" vertex="1">
          <mxGeometry x="-180" y="1060" width="120" height="60" as="geometry" />
        </mxCell>
        <mxCell id="eJuqDP0Z_mgSJIxOMX1Z-43" value="Да" style="edgeStyle=orthogonalEdgeStyle;rounded=0;orthogonalLoop=1;jettySize=auto;html=1;fontColor=#000000;" parent="1" source="eJuqDP0Z_mgSJIxOMX1Z-45" target="eJuqDP0Z_mgSJIxOMX1Z-47" edge="1">
          <mxGeometry relative="1" as="geometry">
            <mxPoint x="-120" y="970" as="targetPoint" />
          </mxGeometry>
        </mxCell>
        <mxCell id="eJuqDP0Z_mgSJIxOMX1Z-44" value="NO" style="edgeStyle=orthogonalEdgeStyle;rounded=0;orthogonalLoop=1;jettySize=auto;html=1;entryX=1;entryY=0.5;entryDx=0;entryDy=0;fontColor=#000000;exitX=1;exitY=0.5;exitDx=0;exitDy=0;" parent="1" source="eJuqDP0Z_mgSJIxOMX1Z-45" target="eJuqDP0Z_mgSJIxOMX1Z-42" edge="1">
          <mxGeometry relative="1" as="geometry" />
        </mxCell>
        <mxCell id="eJuqDP0Z_mgSJIxOMX1Z-45" value="A[index] &amp;lt; A[min]" style="rhombus;whiteSpace=wrap;html=1;fillColor=#d5e8d4;strokeColor=#82b366;" parent="1" vertex="1">
          <mxGeometry x="-205" y="860" width="170" height="80" as="geometry" />
        </mxCell>
        <mxCell id="eJuqDP0Z_mgSJIxOMX1Z-46" style="edgeStyle=orthogonalEdgeStyle;rounded=0;orthogonalLoop=1;jettySize=auto;html=1;fontColor=#000000;entryX=0.5;entryY=0;entryDx=0;entryDy=0;" parent="1" source="eJuqDP0Z_mgSJIxOMX1Z-47" target="eJuqDP0Z_mgSJIxOMX1Z-42" edge="1">
          <mxGeometry relative="1" as="geometry">
            <mxPoint x="-120" y="1040" as="targetPoint" />
          </mxGeometry>
        </mxCell>
        <mxCell id="eJuqDP0Z_mgSJIxOMX1Z-47" value="A[min] = A[index]" style="rounded=0;whiteSpace=wrap;html=1;fontColor=#000000;" parent="1" vertex="1">
          <mxGeometry x="-180" y="970" width="120" height="60" as="geometry" />
        </mxCell>
        <mxCell id="eJuqDP0Z_mgSJIxOMX1Z-50" value="NO" style="edgeStyle=orthogonalEdgeStyle;rounded=0;orthogonalLoop=1;jettySize=auto;html=1;exitX=1;exitY=0.5;exitDx=0;exitDy=0;entryX=0;entryY=0.5;entryDx=0;entryDy=0;" parent="1" source="eJuqDP0Z_mgSJIxOMX1Z-48" target="eJuqDP0Z_mgSJIxOMX1Z-36" edge="1">
          <mxGeometry relative="1" as="geometry" />
        </mxCell>
        <mxCell id="eJuqDP0Z_mgSJIxOMX1Z-48" value="index &amp;lt; N" style="rhombus;whiteSpace=wrap;html=1;fillColor=#f8cecc;strokeColor=#b85450;" parent="1" vertex="1">
          <mxGeometry x="-160" y="750" width="80" height="80" as="geometry" />
        </mxCell>
        <mxCell id="eJuqDP0Z_mgSJIxOMX1Z-53" value="the end" style="ellipse;whiteSpace=wrap;html=1;" parent="1" vertex="1">
          <mxGeometry x="115" y="890" width="120" height="80" as="geometry" />
        </mxCell>
      </root>
    </mxGraphModel>
  </diagram>
  <diagram id="ravVY4zWIGiR-X35YaUR" name="задача 2">
    <mxGraphModel dx="1940" dy="760" grid="1" gridSize="10" guides="1" tooltips="1" connect="1" arrows="1" fold="1" page="1" pageScale="1" pageWidth="827" pageHeight="1169" math="0" shadow="0">
      <root>
        <mxCell id="0" />
        <mxCell id="1" parent="0" />
        <mxCell id="B7uxAN53jHI231ZE_exy-1" value="" style="edgeStyle=orthogonalEdgeStyle;rounded=0;orthogonalLoop=1;jettySize=auto;html=1;fontColor=#000000;" parent="1" source="B7uxAN53jHI231ZE_exy-2" target="B7uxAN53jHI231ZE_exy-4" edge="1">
          <mxGeometry relative="1" as="geometry" />
        </mxCell>
        <mxCell id="B7uxAN53jHI231ZE_exy-2" value="dz" style="ellipse;whiteSpace=wrap;html=1;fontColor=#000000;" parent="1" vertex="1">
          <mxGeometry x="-760.03" y="40" width="120" height="80" as="geometry" />
        </mxCell>
        <mxCell id="B7uxAN53jHI231ZE_exy-3" style="edgeStyle=orthogonalEdgeStyle;rounded=0;orthogonalLoop=1;jettySize=auto;html=1;fontColor=#000000;fillColor=#dae8fc;strokeColor=#6c8ebf;" parent="1" source="B7uxAN53jHI231ZE_exy-4" target="B7uxAN53jHI231ZE_exy-6" edge="1">
          <mxGeometry relative="1" as="geometry">
            <mxPoint x="-700.03" y="230" as="targetPoint" />
          </mxGeometry>
        </mxCell>
        <mxCell id="B7uxAN53jHI231ZE_exy-4" value="N - размер массивa" style="rounded=0;whiteSpace=wrap;html=1;fillColor=#dae8fc;strokeColor=#6c8ebf;" parent="1" vertex="1">
          <mxGeometry x="-760.03" y="150" width="120" height="60" as="geometry" />
        </mxCell>
        <mxCell id="B7uxAN53jHI231ZE_exy-5" style="edgeStyle=orthogonalEdgeStyle;rounded=0;orthogonalLoop=1;jettySize=auto;html=1;fontColor=#000000;fillColor=#dae8fc;strokeColor=#6c8ebf;" parent="1" source="B7uxAN53jHI231ZE_exy-6" target="B7uxAN53jHI231ZE_exy-8" edge="1">
          <mxGeometry relative="1" as="geometry">
            <mxPoint x="-700.03" y="330" as="targetPoint" />
          </mxGeometry>
        </mxCell>
        <mxCell id="B7uxAN53jHI231ZE_exy-6" value="N" style="shape=parallelogram;perimeter=parallelogramPerimeter;whiteSpace=wrap;html=1;fixedSize=1;fillColor=#dae8fc;strokeColor=#6c8ebf;" parent="1" vertex="1">
          <mxGeometry x="-760.03" y="250" width="120" height="60" as="geometry" />
        </mxCell>
        <mxCell id="B7uxAN53jHI231ZE_exy-7" value="" style="edgeStyle=orthogonalEdgeStyle;rounded=0;orthogonalLoop=1;jettySize=auto;html=1;fontColor=#000000;fillColor=#dae8fc;strokeColor=#6c8ebf;" parent="1" source="B7uxAN53jHI231ZE_exy-8" target="B7uxAN53jHI231ZE_exy-10" edge="1">
          <mxGeometry relative="1" as="geometry" />
        </mxCell>
        <mxCell id="B7uxAN53jHI231ZE_exy-8" value="A[N] - массив" style="rounded=0;whiteSpace=wrap;html=1;fillColor=#dae8fc;strokeColor=#6c8ebf;" parent="1" vertex="1">
          <mxGeometry x="-760.03" y="350" width="120" height="60" as="geometry" />
        </mxCell>
        <mxCell id="B7uxAN53jHI231ZE_exy-9" value="" style="edgeStyle=orthogonalEdgeStyle;rounded=0;orthogonalLoop=1;jettySize=auto;html=1;fontColor=#000000;fillColor=#dae8fc;strokeColor=#6c8ebf;" parent="1" source="B7uxAN53jHI231ZE_exy-10" target="B7uxAN53jHI231ZE_exy-12" edge="1">
          <mxGeometry relative="1" as="geometry" />
        </mxCell>
        <mxCell id="B7uxAN53jHI231ZE_exy-10" value="index = 0" style="rounded=0;whiteSpace=wrap;html=1;fillColor=#dae8fc;strokeColor=#6c8ebf;" parent="1" vertex="1">
          <mxGeometry x="-760.03" y="450" width="120" height="60" as="geometry" />
        </mxCell>
        <mxCell id="B7uxAN53jHI231ZE_exy-11" value="YES" style="edgeStyle=orthogonalEdgeStyle;rounded=0;orthogonalLoop=1;jettySize=auto;html=1;fontColor=#000000;fillColor=#dae8fc;strokeColor=#6c8ebf;" parent="1" source="B7uxAN53jHI231ZE_exy-12" target="B7uxAN53jHI231ZE_exy-14" edge="1">
          <mxGeometry relative="1" as="geometry">
            <mxPoint x="-700.03" y="649.9999999999999" as="targetPoint" />
          </mxGeometry>
        </mxCell>
        <mxCell id="B7uxAN53jHI231ZE_exy-18" value="NO" style="edgeStyle=orthogonalEdgeStyle;rounded=0;orthogonalLoop=1;jettySize=auto;html=1;exitX=1;exitY=0.5;exitDx=0;exitDy=0;fillColor=#dae8fc;strokeColor=#6c8ebf;" parent="1" source="B7uxAN53jHI231ZE_exy-12" edge="1">
          <mxGeometry relative="1" as="geometry">
            <mxPoint x="-560" y="585" as="targetPoint" />
          </mxGeometry>
        </mxCell>
        <mxCell id="B7uxAN53jHI231ZE_exy-12" value="index &amp;lt; N" style="rhombus;whiteSpace=wrap;html=1;fillColor=#dae8fc;strokeColor=#6c8ebf;" parent="1" vertex="1">
          <mxGeometry x="-740.03" y="545" width="80" height="80" as="geometry" />
        </mxCell>
        <mxCell id="B7uxAN53jHI231ZE_exy-13" style="edgeStyle=orthogonalEdgeStyle;rounded=0;orthogonalLoop=1;jettySize=auto;html=1;fontColor=#000000;fillColor=#dae8fc;strokeColor=#6c8ebf;" parent="1" source="B7uxAN53jHI231ZE_exy-14" target="B7uxAN53jHI231ZE_exy-16" edge="1">
          <mxGeometry relative="1" as="geometry">
            <mxPoint x="-700.03" y="740" as="targetPoint" />
          </mxGeometry>
        </mxCell>
        <mxCell id="B7uxAN53jHI231ZE_exy-14" value="A[index]" style="shape=parallelogram;perimeter=parallelogramPerimeter;whiteSpace=wrap;html=1;fixedSize=1;fillColor=#dae8fc;strokeColor=#6c8ebf;" parent="1" vertex="1">
          <mxGeometry x="-760.03" y="660" width="120" height="60" as="geometry" />
        </mxCell>
        <mxCell id="B7uxAN53jHI231ZE_exy-15" style="edgeStyle=orthogonalEdgeStyle;rounded=0;orthogonalLoop=1;jettySize=auto;html=1;exitX=0;exitY=0.5;exitDx=0;exitDy=0;entryX=0;entryY=0.5;entryDx=0;entryDy=0;fillColor=#dae8fc;strokeColor=#6c8ebf;" parent="1" source="B7uxAN53jHI231ZE_exy-16" target="B7uxAN53jHI231ZE_exy-12" edge="1">
          <mxGeometry relative="1" as="geometry" />
        </mxCell>
        <mxCell id="B7uxAN53jHI231ZE_exy-16" value="index = index + 1" style="rounded=0;whiteSpace=wrap;html=1;fillColor=#dae8fc;strokeColor=#6c8ebf;" parent="1" vertex="1">
          <mxGeometry x="-760.03" y="750" width="120" height="60" as="geometry" />
        </mxCell>
        <mxCell id="8M1EhAOICk9ROYOAX7s5-4" style="edgeStyle=orthogonalEdgeStyle;rounded=0;orthogonalLoop=1;jettySize=auto;html=1;exitX=0.5;exitY=1;exitDx=0;exitDy=0;entryX=0.498;entryY=-0.022;entryDx=0;entryDy=0;entryPerimeter=0;" parent="1" source="8M1EhAOICk9ROYOAX7s5-2" target="8M1EhAOICk9ROYOAX7s5-5" edge="1">
          <mxGeometry relative="1" as="geometry">
            <mxPoint x="-500" y="650" as="targetPoint" />
            <Array as="points">
              <mxPoint x="-500" y="640" />
              <mxPoint x="-499" y="640" />
            </Array>
          </mxGeometry>
        </mxCell>
        <mxCell id="8M1EhAOICk9ROYOAX7s5-2" value="index = 0&lt;br&gt;temp = 0&lt;br&gt;END = n-1" style="rounded=0;whiteSpace=wrap;html=1;" parent="1" vertex="1">
          <mxGeometry x="-560" y="555" width="120" height="60" as="geometry" />
        </mxCell>
        <mxCell id="8M1EhAOICk9ROYOAX7s5-7" value="yes" style="edgeStyle=orthogonalEdgeStyle;rounded=0;orthogonalLoop=1;jettySize=auto;html=1;exitX=0.5;exitY=1;exitDx=0;exitDy=0;entryX=0.5;entryY=0;entryDx=0;entryDy=0;" parent="1" edge="1">
          <mxGeometry relative="1" as="geometry">
            <mxPoint x="-500" y="790" as="targetPoint" />
            <mxPoint x="-500" y="730" as="sourcePoint" />
          </mxGeometry>
        </mxCell>
        <mxCell id="8M1EhAOICk9ROYOAX7s5-35" value="нет" style="edgeStyle=orthogonalEdgeStyle;rounded=0;orthogonalLoop=1;jettySize=auto;html=1;exitX=1;exitY=0.5;exitDx=0;exitDy=0;entryX=0;entryY=0.375;entryDx=0;entryDy=0;entryPerimeter=0;" parent="1" target="8M1EhAOICk9ROYOAX7s5-37" edge="1">
          <mxGeometry relative="1" as="geometry">
            <mxPoint x="-325" y="690" as="targetPoint" />
            <Array as="points">
              <mxPoint x="-350" y="690" />
              <mxPoint x="-350" y="690" />
            </Array>
            <mxPoint x="-445" y="690" as="sourcePoint" />
          </mxGeometry>
        </mxCell>
        <mxCell id="8M1EhAOICk9ROYOAX7s5-5" value="index &amp;lt;= N / 2" style="rhombus;whiteSpace=wrap;html=1;" parent="1" vertex="1">
          <mxGeometry x="-554" y="650" width="110" height="80" as="geometry" />
        </mxCell>
        <mxCell id="Uay85iVCb45I-mA0D9wo-3" style="edgeStyle=orthogonalEdgeStyle;rounded=0;orthogonalLoop=1;jettySize=auto;html=1;entryX=0;entryY=0.5;entryDx=0;entryDy=0;" parent="1" source="8M1EhAOICk9ROYOAX7s5-9" target="8M1EhAOICk9ROYOAX7s5-5" edge="1">
          <mxGeometry relative="1" as="geometry">
            <Array as="points">
              <mxPoint x="-610" y="930" />
              <mxPoint x="-610" y="690" />
            </Array>
          </mxGeometry>
        </mxCell>
        <mxCell id="8M1EhAOICk9ROYOAX7s5-9" value="index = index + 1" style="rounded=0;whiteSpace=wrap;html=1;" parent="1" vertex="1">
          <mxGeometry x="-550" y="900" width="110" height="60" as="geometry" />
        </mxCell>
        <mxCell id="8M1EhAOICk9ROYOAX7s5-29" style="edgeStyle=orthogonalEdgeStyle;rounded=0;orthogonalLoop=1;jettySize=auto;html=1;exitX=0.5;exitY=1;exitDx=0;exitDy=0;entryX=0.458;entryY=-0.022;entryDx=0;entryDy=0;entryPerimeter=0;" parent="1" source="8M1EhAOICk9ROYOAX7s5-25" target="8M1EhAOICk9ROYOAX7s5-9" edge="1">
          <mxGeometry relative="1" as="geometry" />
        </mxCell>
        <mxCell id="8M1EhAOICk9ROYOAX7s5-25" value="&lt;br&gt;&lt;span style=&quot;color: rgb(0, 0, 0); font-family: Helvetica; font-size: 12px; font-style: normal; font-variant-ligatures: normal; font-variant-caps: normal; font-weight: 400; letter-spacing: normal; orphans: 2; text-align: center; text-indent: 0px; text-transform: none; widows: 2; word-spacing: 0px; -webkit-text-stroke-width: 0px; background-color: rgb(248, 249, 250); text-decoration-thickness: initial; text-decoration-style: initial; text-decoration-color: initial; float: none; display: inline !important;&quot;&gt;temp = A[index]&lt;/span&gt;&lt;br style=&quot;color: rgb(0, 0, 0); font-family: Helvetica; font-size: 12px; font-style: normal; font-variant-ligatures: normal; font-variant-caps: normal; font-weight: 400; letter-spacing: normal; orphans: 2; text-align: center; text-indent: 0px; text-transform: none; widows: 2; word-spacing: 0px; -webkit-text-stroke-width: 0px; background-color: rgb(248, 249, 250); text-decoration-thickness: initial; text-decoration-style: initial; text-decoration-color: initial;&quot;&gt;&lt;span style=&quot;color: rgb(0, 0, 0); font-family: Helvetica; font-size: 12px; font-style: normal; font-variant-ligatures: normal; font-variant-caps: normal; font-weight: 400; letter-spacing: normal; orphans: 2; text-align: center; text-indent: 0px; text-transform: none; widows: 2; word-spacing: 0px; -webkit-text-stroke-width: 0px; background-color: rgb(248, 249, 250); text-decoration-thickness: initial; text-decoration-style: initial; text-decoration-color: initial; float: none; display: inline !important;&quot;&gt;A[index] = A[N-1-index]&lt;/span&gt;&lt;br style=&quot;color: rgb(0, 0, 0); font-family: Helvetica; font-size: 12px; font-style: normal; font-variant-ligatures: normal; font-variant-caps: normal; font-weight: 400; letter-spacing: normal; orphans: 2; text-align: center; text-indent: 0px; text-transform: none; widows: 2; word-spacing: 0px; -webkit-text-stroke-width: 0px; background-color: rgb(248, 249, 250); text-decoration-thickness: initial; text-decoration-style: initial; text-decoration-color: initial;&quot;&gt;A[N-1-index] = temp" style="whiteSpace=wrap;html=1;" parent="1" vertex="1">
          <mxGeometry x="-573.5" y="790" width="149" height="60" as="geometry" />
        </mxCell>
        <mxCell id="8M1EhAOICk9ROYOAX7s5-39" style="edgeStyle=orthogonalEdgeStyle;rounded=0;orthogonalLoop=1;jettySize=auto;html=1;" parent="1" source="8M1EhAOICk9ROYOAX7s5-37" edge="1">
          <mxGeometry relative="1" as="geometry">
            <mxPoint x="-165" y="700" as="targetPoint" />
          </mxGeometry>
        </mxCell>
        <mxCell id="8M1EhAOICk9ROYOAX7s5-41" style="edgeStyle=orthogonalEdgeStyle;rounded=0;orthogonalLoop=1;jettySize=auto;html=1;entryX=0;entryY=0.5;entryDx=0;entryDy=0;" parent="1" source="8M1EhAOICk9ROYOAX7s5-37" edge="1">
          <mxGeometry relative="1" as="geometry">
            <mxPoint x="-140" y="700" as="targetPoint" />
          </mxGeometry>
        </mxCell>
        <mxCell id="8M1EhAOICk9ROYOAX7s5-37" value="номерация массива перевернута" style="shape=document;whiteSpace=wrap;html=1;boundedLbl=1;" parent="1" vertex="1">
          <mxGeometry x="-280" y="660" width="110" height="80" as="geometry" />
        </mxCell>
        <mxCell id="8M1EhAOICk9ROYOAX7s5-40" value="конец" style="ellipse;whiteSpace=wrap;html=1;" parent="1" vertex="1">
          <mxGeometry x="-140" y="660" width="120" height="80" as="geometry" />
        </mxCell>
      </root>
    </mxGraphModel>
  </diagram>
</mxfile>
